<svg xmlns="http://www.w3.org/2000/svg" width="138.04" height="28" viewBox="0 0 493 100">
  <title>HaoTool</title>
  <!-- ?????????? text??cap 100?x-height 74??? 21???? r37/?? r16? -->
  <!-- Hao???? -->
  <path fill="#0F172A" d="M0 0H21V100H0ZM57 0H78V100H57ZM0 38H78V59H0ZM90 63A37 37 0 1 1 164 63A37 37 0 1 1 90 63ZM111 63A16 16 0 1 0 143 63A16 16 0 1 0 111 63ZM143 26H164V100H143ZM176 63A37 37 0 1 1 250 63A37 37 0 1 1 176 63ZM197 63A16 16 0 1 0 229 63A16 16 0 1 0 197 63Z"/>
  <!-- Tool????? -->
  <path fill="#3182F6" d="M246 0H318V21H246ZM271.5 0H292.5V100H271.5ZM300 63A37 37 0 1 1 374 63A37 37 0 1 1 300 63ZM321 63A16 16 0 1 0 353 63A16 16 0 1 0 321 63ZM386 63A37 37 0 1 1 460 63A37 37 0 1 1 386 63ZM407 63A16 16 0 1 0 439 63A16 16 0 1 0 407 63ZM472 0H493V100H472Z"/>
</svg>
