<svg xmlns="http://www.w3.org/2000/svg" viewBox="0 0 128 128" role="img" aria-label="Split Meow">
  <rect width="128" height="128" rx="28" fill="#fbf9f7"/>
  <polygon points="28,52 40,24 56,50" fill="#C4B5FD"/>
  <polygon points="100,52 88,24 72,50" fill="#C4B5FD"/>
  <polygon points="34,48 41,32 51,47" fill="#FDE68A"/>
  <polygon points="94,48 87,32 77,47" fill="#FDE68A"/>
  <circle cx="64" cy="72" r="34" fill="#C4B5FD"/>
  <circle cx="42" cy="79" r="9" fill="#FCA5A5" opacity="0.45"/>
  <circle cx="86" cy="79" r="9" fill="#FCA5A5" opacity="0.45"/>
  <circle cx="51" cy="66" r="5" fill="#2d2038"/>
  <circle cx="77" cy="66" r="5" fill="#2d2038"/>
  <circle cx="53" cy="64" r="2" fill="white"/>
  <circle cx="79" cy="64" r="2" fill="white"/>
  <ellipse cx="64" cy="75" rx="2.5" ry="2" fill="#2d2038" opacity="0.4"/>
  <path d="M58 80 Q64 87 70 80" fill="none" stroke="#2d2038" stroke-width="2.5" stroke-linecap="round" opacity="0.8"/>
  <line x1="28" y1="74" x2="50" y2="76" stroke="#a89abf" stroke-width="1.5" stroke-linecap="round"/>
  <line x1="28" y1="81" x2="50" y2="80" stroke="#a89abf" stroke-width="1.5" stroke-linecap="round"/>
  <line x1="100" y1="74" x2="78" y2="76" stroke="#a89abf" stroke-width="1.5" stroke-linecap="round"/>
  <line x1="100" y1="81" x2="78" y2="80" stroke="#a89abf" stroke-width="1.5" stroke-linecap="round"/>
</svg>
