<svg xmlns="http://www.w3.org/2000/svg" viewBox="0 0 128 128" role="img" aria-label="Split Meow">
  <defs>
    <linearGradient id="g" x1="0" y1="0" x2="1" y2="1">
      <stop offset="0" stop-color="#d6beff" />
      <stop offset="1" stop-color="#bdefbe" />
    </linearGradient>
  </defs>
  <rect width="128" height="128" rx="28" fill="#fbf9f7" />
  <path
    d="M34 58c0-14 10-26 30-26s30 12 30 26c0 24-18 38-30 38S34 82 34 58Z"
    fill="url(#g)"
  />
  <path d="M44 46 34 30l20 8Z" fill="#69558e" opacity="0.9" />
  <path d="M84 46 94 30l-20 8Z" fill="#69558e" opacity="0.9" />
  <circle cx="54" cy="62" r="4" fill="#313331" />
  <circle cx="74" cy="62" r="4" fill="#313331" />
  <path d="M60 70c2 2 6 2 8 0" fill="none" stroke="#313331" stroke-width="4" stroke-linecap="round" />
  <path
    d="M26 70c10-6 18-6 28 0M74 70c10-6 18-6 28 0"
    fill="none"
    stroke="#7a7b79"
    stroke-width="3"
    stroke-linecap="round"
    opacity="0.9"
  />
</svg>

