<svg xmlns="http://www.w3.org/2000/svg" viewBox="0 0 128 128" role="img" aria-label="Cat avatar">
  <defs>
    <linearGradient id="g" x1="0" y1="0" x2="1" y2="1">
      <stop offset="0" stop-color="#fff3a3"/>
      <stop offset="1" stop-color="#ffd970"/>
    </linearGradient>
  </defs>
  <rect width="128" height="128" rx="28" fill="#fbf9f7"/>
  <path d="M34 60c0-14 10-26 30-26s30 12 30 26c0 24-18 38-30 38S34 84 34 60Z" fill="url(#g)"/>
  <path d="M44 48 34 32l20 8Z" fill="#c8a200" opacity="0.9"/>
  <path d="M84 48 94 32l-20 8Z" fill="#c8a200" opacity="0.9"/>
  <!-- flower accessory on left ear -->
  <circle cx="36" cy="32" r="5" fill="#f97386" opacity="0.85"/>
  <circle cx="41" cy="28" r="4" fill="#f97386" opacity="0.85"/>
  <circle cx="41" cy="36" r="4" fill="#f97386" opacity="0.85"/>
  <circle cx="36" cy="32" r="3" fill="#fff3a3"/>
  <!-- normal eyes -->
  <circle cx="54" cy="64" r="4.5" fill="#313331"/>
  <circle cx="74" cy="64" r="4.5" fill="#313331"/>
  <circle cx="52.5" cy="62.5" r="1.5" fill="white" opacity="0.75"/>
  <circle cx="72.5" cy="62.5" r="1.5" fill="white" opacity="0.75"/>
  <!-- diamond nose -->
  <path d="M62 69.5l2-2.5 2 2.5-2 2.5z" fill="#c89a00" opacity="0.9"/>
  <!-- big smile -->
  <path d="M56 75c3 4.5 13 4.5 16 0" fill="none" stroke="#313331" stroke-width="3.5" stroke-linecap="round"/>
  <!-- rosy cheeks -->
  <ellipse cx="46" cy="73" rx="7" ry="4" fill="#f97386" opacity="0.18"/>
  <ellipse cx="82" cy="73" rx="7" ry="4" fill="#f97386" opacity="0.18"/>
</svg>
