<svg xmlns="http://www.w3.org/2000/svg" viewBox="0 0 128 128" role="img" aria-label="Cat avatar">
  <defs>
    <linearGradient id="g" x1="0" y1="0" x2="1" y2="1">
      <stop offset="0" stop-color="#bdefbe"/>
      <stop offset="1" stop-color="#d6beff"/>
    </linearGradient>
  </defs>
  <rect width="128" height="128" rx="28" fill="#fbf9f7"/>
  <path d="M34 60c0-14 10-26 30-26s30 12 30 26c0 24-18 38-30 38S34 84 34 60Z" fill="url(#g)"/>
  <path d="M44 48 34 32l20 8Z" fill="#3c6942" opacity="0.9"/>
  <path d="M84 48 94 32l-20 8Z" fill="#3c6942" opacity="0.9"/>
  <!-- happy arch eyes -->
  <path d="M48 66c2.5-5.5 9-5.5 11 0" fill="none" stroke="#313331" stroke-width="3.5" stroke-linecap="round"/>
  <path d="M69 66c2.5-5.5 9-5.5 11 0" fill="none" stroke="#313331" stroke-width="3.5" stroke-linecap="round"/>
  <!-- small oval nose -->
  <ellipse cx="64" cy="71" rx="2" ry="1.5" fill="#4a8a50" opacity="0.85"/>
  <!-- wide smile -->
  <path d="M57 75c3 4 11 4 14 0" fill="none" stroke="#313331" stroke-width="3.5" stroke-linecap="round"/>
  <!-- rosy cheeks -->
  <ellipse cx="46" cy="74" rx="7" ry="4" fill="#f97386" opacity="0.22"/>
  <ellipse cx="82" cy="74" rx="7" ry="4" fill="#f97386" opacity="0.22"/>
</svg>
