<svg xmlns="http://www.w3.org/2000/svg" viewBox="0 0 128 128" role="img" aria-label="Cat avatar">
  <defs>
    <linearGradient id="g" x1="0" y1="0" x2="1" y2="1">
      <stop offset="0" stop-color="#d6beff"/>
      <stop offset="1" stop-color="#efb1f9"/>
    </linearGradient>
  </defs>
  <rect width="128" height="128" rx="28" fill="#fbf9f7"/>
  <path d="M34 60c0-14 10-26 30-26s30 12 30 26c0 24-18 38-30 38S34 84 34 60Z" fill="url(#g)"/>
  <path d="M44 48 34 32l20 8Z" fill="#69558e" opacity="0.9"/>
  <path d="M84 48 94 32l-20 8Z" fill="#69558e" opacity="0.9"/>
  <!-- M forehead stripe -->
  <path d="M55 49l3 5 3-5 3 5 3-5" fill="none" stroke="#69558e" stroke-width="2" stroke-linecap="round" stroke-linejoin="round" opacity="0.4"/>
  <!-- eyes with shine -->
  <circle cx="54" cy="64" r="4.5" fill="#313331"/>
  <circle cx="74" cy="64" r="4.5" fill="#313331"/>
  <circle cx="52.5" cy="62.5" r="1.5" fill="white" opacity="0.75"/>
  <circle cx="72.5" cy="62.5" r="1.5" fill="white" opacity="0.75"/>
  <!-- triangle nose -->
  <path d="M62 70l2-2.5 2 2.5-2 1.5z" fill="#b060b8" opacity="0.85"/>
  <!-- mouth -->
  <path d="M60 73c2 2 6 2 8 0" fill="none" stroke="#313331" stroke-width="3.5" stroke-linecap="round"/>
  <!-- whiskers -->
  <line x1="37" y1="68" x2="52" y2="70" stroke="#69558e" stroke-width="1.5" opacity="0.35" stroke-linecap="round"/>
  <line x1="37" y1="73" x2="52" y2="72" stroke="#69558e" stroke-width="1.5" opacity="0.35" stroke-linecap="round"/>
  <line x1="76" y1="70" x2="91" y2="68" stroke="#69558e" stroke-width="1.5" opacity="0.35" stroke-linecap="round"/>
  <line x1="76" y1="72" x2="91" y2="73" stroke="#69558e" stroke-width="1.5" opacity="0.35" stroke-linecap="round"/>
</svg>
