<svg xmlns="http://www.w3.org/2000/svg" viewBox="0 0 128 128" role="img" aria-label="Cat avatar">
  <defs>
    <linearGradient id="g" x1="0" y1="0" x2="1" y2="1">
      <stop offset="0" stop-color="#c4e0ff"/>
      <stop offset="1" stop-color="#d6beff"/>
    </linearGradient>
  </defs>
  <rect width="128" height="128" rx="28" fill="#fbf9f7"/>
  <path d="M34 60c0-14 10-26 30-26s30 12 30 26c0 24-18 38-30 38S34 84 34 60Z" fill="url(#g)"/>
  <path d="M44 48 34 32l20 8Z" fill="#3a5ab0" opacity="0.9"/>
  <path d="M84 48 94 32l-20 8Z" fill="#3a5ab0" opacity="0.9"/>
  <!-- big sparkle eyes -->
  <circle cx="54" cy="64" r="6" fill="#313331"/>
  <circle cx="74" cy="64" r="6" fill="#313331"/>
  <!-- shine highlights -->
  <circle cx="51.5" cy="61.5" r="2.2" fill="white" opacity="0.85"/>
  <circle cx="71.5" cy="61.5" r="2.2" fill="white" opacity="0.85"/>
  <circle cx="57" cy="68" r="1" fill="white" opacity="0.5"/>
  <circle cx="77" cy="68" r="1" fill="white" opacity="0.5"/>
  <!-- tiny cross sparkles at corners -->
  <path d="M43 50 v-4 M41 48 h4" stroke="#3a5ab0" stroke-width="1.5" stroke-linecap="round" opacity="0.5"/>
  <path d="M88 50 v-4 M86 48 h4" stroke="#3a5ab0" stroke-width="1.5" stroke-linecap="round" opacity="0.5"/>
  <!-- nose -->
  <ellipse cx="64" cy="72" rx="2" ry="1.5" fill="#5a7ab0" opacity="0.9"/>
  <!-- open mouth / curious -->
  <path d="M60 76c1.5 2.5 6.5 2.5 8 0" fill="none" stroke="#313331" stroke-width="3.5" stroke-linecap="round"/>
</svg>
