<svg xmlns="http://www.w3.org/2000/svg" viewBox="0 0 128 128" role="img" aria-label="Cat avatar">
  <defs>
    <linearGradient id="g" x1="0" y1="0" x2="1" y2="1">
      <stop offset="0" stop-color="#c8b4f8"/>
      <stop offset="1" stop-color="#8c6de8"/>
    </linearGradient>
  </defs>
  <rect width="128" height="128" rx="28" fill="#fbf9f7"/>
  <path d="M34 60c0-14 10-26 30-26s30 12 30 26c0 24-18 38-30 38S34 84 34 60Z" fill="url(#g)"/>
  <path d="M44 48 34 32l20 8Z" fill="#5c38c0" opacity="0.9"/>
  <path d="M84 48 94 32l-20 8Z" fill="#5c38c0" opacity="0.9"/>
  <!-- tiny star decorations -->
  <path d="M35 44 l1 2.5 2.5 1-2.5 1-1 2.5-1-2.5-2.5-1 2.5-1z" fill="#5c38c0" opacity="0.55"/>
  <path d="M92 40 l.8 2 2 .8-2 .8-.8 2-.8-2-2-.8 2-.8z" fill="#5c38c0" opacity="0.45"/>
  <path d="M88 56 l.6 1.5 1.5.6-1.5.6-.6 1.5-.6-1.5-1.5-.6 1.5-.6z" fill="#8c6de8" opacity="0.5"/>
  <!-- side-glancing eyes (pupils off-center) -->
  <circle cx="54" cy="64" r="5" fill="#313331"/>
  <circle cx="74" cy="64" r="5" fill="#313331"/>
  <circle cx="56.5" cy="63" r="2" fill="white" opacity="0.8"/>
  <circle cx="76.5" cy="63" r="2" fill="white" opacity="0.8"/>
  <!-- nose -->
  <ellipse cx="64" cy="72" rx="2" ry="1.5" fill="#5c38c0" opacity="0.8"/>
  <!-- mysterious neutral mouth -->
  <path d="M60 76 q4 1.5 8 0" fill="none" stroke="#313331" stroke-width="3" stroke-linecap="round"/>
</svg>
