<svg xmlns="http://www.w3.org/2000/svg" viewBox="0 0 128 128" role="img" aria-label="Cat avatar">
  <defs>
    <linearGradient id="g" x1="0" y1="0" x2="1" y2="1">
      <stop offset="0" stop-color="#ffd6a5"/>
      <stop offset="1" stop-color="#efb1f9"/>
    </linearGradient>
  </defs>
  <rect width="128" height="128" rx="28" fill="#fbf9f7"/>
  <path d="M34 60c0-14 10-26 30-26s30 12 30 26c0 24-18 38-30 38S34 84 34 60Z" fill="url(#g)"/>
  <path d="M44 48 34 32l20 8Z" fill="#c87840" opacity="0.9"/>
  <path d="M84 48 94 32l-20 8Z" fill="#c87840" opacity="0.9"/>
  <!-- winking left eye (arch) -->
  <path d="M48 65.5c2.5-5 9-5 11 0" fill="none" stroke="#313331" stroke-width="3.5" stroke-linecap="round"/>
  <!-- open right eye with shine -->
  <circle cx="74" cy="64" r="4.5" fill="#313331"/>
  <circle cx="72.5" cy="62.5" r="1.5" fill="white" opacity="0.8"/>
  <!-- small 4-point star near wink -->
  <path d="M38 56 l1 3 3 1-3 1-1 3-1-3-3-1 3-1z" fill="#c87840" opacity="0.7"/>
  <!-- nose -->
  <path d="M62 70l2-2.5 2 2.5-2 1.5z" fill="#d07038" opacity="0.9"/>
  <!-- mouth -->
  <path d="M59 73c2.5 3 7.5 3 10 0" fill="none" stroke="#313331" stroke-width="3.5" stroke-linecap="round"/>
</svg>
