<svg xmlns="http://www.w3.org/2000/svg" viewBox="0 0 192 192" role="img" aria-label="Split Meow icon">
  <rect width="192" height="192" rx="44" fill="#fbf9f7"/>
  <polygon points="42,78 60,36 84,75" fill="#C4B5FD"/>
  <polygon points="150,78 132,36 108,75" fill="#C4B5FD"/>
  <polygon points="51,72 62,48 77,71" fill="#FDE68A"/>
  <polygon points="141,72 130,48 115,71" fill="#FDE68A"/>
  <circle cx="96" cy="108" r="51" fill="#C4B5FD"/>
  <circle cx="63" cy="119" r="14" fill="#FCA5A5" opacity="0.45"/>
  <circle cx="129" cy="119" r="14" fill="#FCA5A5" opacity="0.45"/>
  <circle cx="77" cy="99" r="7.5" fill="#2d2038"/>
  <circle cx="115" cy="99" r="7.5" fill="#2d2038"/>
  <circle cx="80" cy="96" r="3" fill="white"/>
  <circle cx="118" cy="96" r="3" fill="white"/>
  <ellipse cx="96" cy="112" rx="3.5" ry="3" fill="#2d2038" opacity="0.4"/>
  <path d="M87 120 Q96 131 105 120" fill="none" stroke="#2d2038" stroke-width="4" stroke-linecap="round" opacity="0.8"/>
  <line x1="42" y1="110" x2="75" y2="114" stroke="#a89abf" stroke-width="2" stroke-linecap="round"/>
  <line x1="42" y1="121" x2="75" y2="120" stroke="#a89abf" stroke-width="2" stroke-linecap="round"/>
  <line x1="150" y1="110" x2="117" y2="114" stroke="#a89abf" stroke-width="2" stroke-linecap="round"/>
  <line x1="150" y1="121" x2="117" y2="120" stroke="#a89abf" stroke-width="2" stroke-linecap="round"/>
</svg>
