<svg xmlns="http://www.w3.org/2000/svg" viewBox="0 0 512 512" role="img" aria-label="Split Meow icon">
  <defs>
    <linearGradient id="g" x1="0" y1="0" x2="1" y2="1">
      <stop offset="0" stop-color="#d6beff" />
      <stop offset="1" stop-color="#bdefbe" />
    </linearGradient>
  </defs>
  <rect width="512" height="512" rx="120" fill="#fbf9f7" />
  <path
    d="M136 234c0-58 42-110 120-110s120 52 120 110c0 106-74 168-120 168s-120-62-120-168Z"
    fill="url(#g)"
  />
  <path d="M176 188 136 124l86 36Z" fill="#69558e" opacity="0.92" />
  <path d="M336 188 376 124l-86 36Z" fill="#69558e" opacity="0.92" />
  <circle cx="216" cy="252" r="18" fill="#313331" />
  <circle cx="296" cy="252" r="18" fill="#313331" />
  <path d="M240 292c12 12 20 12 32 0" fill="none" stroke="#313331" stroke-width="18" stroke-linecap="round" />
  <path
    d="M104 294c44-26 78-26 122 0M286 294c44-26 78-26 122 0"
    fill="none"
    stroke="#7a7b79"
    stroke-width="12"
    stroke-linecap="round"
    opacity="0.9"
  />
</svg>

