<svg xmlns="http://www.w3.org/2000/svg" viewBox="0 0 512 512" role="img" aria-label="Split Meow icon">
  <rect width="512" height="512" rx="120" fill="#fbf9f7"/>
  <polygon points="112,208 160,96 224,200" fill="#C4B5FD"/>
  <polygon points="400,208 352,96 288,200" fill="#C4B5FD"/>
  <polygon points="136,192 164,128 206,190" fill="#FDE68A"/>
  <polygon points="376,192 348,128 306,190" fill="#FDE68A"/>
  <circle cx="256" cy="288" r="136" fill="#C4B5FD"/>
  <circle cx="168" cy="316" r="36" fill="#FCA5A5" opacity="0.45"/>
  <circle cx="344" cy="316" r="36" fill="#FCA5A5" opacity="0.45"/>
  <circle cx="204" cy="264" r="20" fill="#2d2038"/>
  <circle cx="308" cy="264" r="20" fill="#2d2038"/>
  <circle cx="213" cy="256" r="8" fill="white"/>
  <circle cx="317" cy="256" r="8" fill="white"/>
  <ellipse cx="256" cy="299" rx="9" ry="8" fill="#2d2038" opacity="0.4"/>
  <path d="M232 320 Q256 348 280 320" fill="none" stroke="#2d2038" stroke-width="10" stroke-linecap="round" opacity="0.8"/>
  <line x1="112" y1="294" x2="200" y2="304" stroke="#a89abf" stroke-width="6" stroke-linecap="round"/>
  <line x1="112" y1="322" x2="200" y2="320" stroke="#a89abf" stroke-width="6" stroke-linecap="round"/>
  <line x1="400" y1="294" x2="312" y2="304" stroke="#a89abf" stroke-width="6" stroke-linecap="round"/>
  <line x1="400" y1="322" x2="312" y2="320" stroke="#a89abf" stroke-width="6" stroke-linecap="round"/>
</svg>
