<svg xmlns="http://www.w3.org/2000/svg" viewBox="0 0 1200 630">
  <defs>
    <linearGradient id="bgGrad" x1="0%" y1="0%" x2="100%" y2="100%">
      <stop offset="0%" style="stop-color:#0c4a6e;stop-opacity:1" />
      <stop offset="100%" style="stop-color:#0ea5e9;stop-opacity:1" />
    </linearGradient>
    <linearGradient id="waveGrad" x1="0%" y1="0%" x2="100%" y2="0%">
      <stop offset="0%" style="stop-color:#38bdf8;stop-opacity:0.8" />
      <stop offset="50%" style="stop-color:#0ea5e9;stop-opacity:0.6" />
      <stop offset="100%" style="stop-color:#38bdf8;stop-opacity:0.8" />
    </linearGradient>
    <radialGradient id="epicenter" cx="50%" cy="50%" r="50%">
      <stop offset="0%" style="stop-color:#fbbf24;stop-opacity:1" />
      <stop offset="100%" style="stop-color:#f59e0b;stop-opacity:0" />
    </radialGradient>
  </defs>
  
  <!-- Background -->
  <rect width="1200" height="630" fill="url(#bgGrad)"/>
  
  <!-- Seismic waves (animated effect) -->
  <g opacity="0.3">
    <ellipse cx="600" cy="450" rx="400" ry="80" fill="none" stroke="url(#waveGrad)" stroke-width="3"/>
    <ellipse cx="600" cy="450" rx="300" ry="60" fill="none" stroke="url(#waveGrad)" stroke-width="2"/>
    <ellipse cx="600" cy="450" rx="200" ry="40" fill="none" stroke="url(#waveGrad)" stroke-width="2"/>
  </g>
  
  <!-- Epicenter point -->
  <circle cx="600" cy="450" r="40" fill="url(#epicenter)"/>
  <circle cx="600" cy="450" r="20" fill="#fbbf24"/>
  
  <!-- Decorative border -->
  <rect x="20" y="20" width="1160" height="590" fill="none" stroke="#38bdf8" stroke-width="3" rx="10"/>
  
  <!-- Main content area -->
  <g transform="translate(600, 150)">
    <!-- Icon: School building with earthquake symbol -->
    <g transform="translate(-60, -40)">
      <rect x="0" y="0" width="120" height="80" fill="#f0f9ff" rx="5"/>
      <rect x="10" y="10" width="30" height="30" fill="#0ea5e9" opacity="0.3"/>
      <rect x="45" y="10" width="30" height="30" fill="#0ea5e9" opacity="0.3"/>
      <rect x="80" y="10" width="30" height="30" fill="#0ea5e9" opacity="0.3"/>
      <rect x="45" y="50" width="30" height="30" fill="#0ea5e9"/>
      <!-- Earthquake symbol -->
      <path d="M 100 -10 L 110 0 L 100 10 L 110 20 L 100 30" stroke="#fbbf24" stroke-width="3" fill="none"/>
    </g>
    
    <!-- Title -->
    <text x="0" y="80" font-family="sans-serif" font-size="64" fill="white" text-anchor="middle" font-weight="bold">
      0ÂXx
    </text>
    
    <!-- Subtitle -->
    <text x="0" y="140" font-family="sans-serif" font-size="32" fill="#e0f2fe" text-anchor="middle">
      Quake School
    </text>
    
    <!-- Divider -->
    <line x1="-250" y1="170" x2="250" y2="170" stroke="#38bdf8" stroke-width="2"/>
    
    <!-- Description -->
    <text x="0" y="220" font-family="sans-serif" font-size="24" fill="#f0f9ff" text-anchor="middle">
      í’0[Ys ∑ è!'¶C
    </text>
  </g>
  
  <!-- Features badges -->
  <g transform="translate(600, 480)">
    <g transform="translate(-280, 0)">
      <rect x="-60" y="-20" width="120" height="40" fill="white" opacity="0.2" rx="20"/>
      <text x="0" y="5" font-family="sans-serif" font-size="18" fill="white" text-anchor="middle" font-weight="600">
        18 L´
      </text>
    </g>
    <g transform="translate(-90, 0)">
      <rect x="-70" y="-20" width="140" height="40" fill="white" opacity="0.2" rx="20"/>
      <text x="0" y="5" font-family="sans-serif" font-size="18" fill="white" text-anchor="middle" font-weight="600">
        SVG ’k
      </text>
    </g>
    <g transform="translate(110, 0)">
      <rect x="-80" y="-20" width="160" height="40" fill="white" opacity="0.2" rx="20"/>
      <text x="0" y="5" font-family="sans-serif" font-size="18" fill="white" text-anchor="middle" font-weight="600">
        2}Y≤
      </text>
    </g>
  </g>
  
  <!-- Bottom info -->
  <g transform="translate(600, 560)">
    <rect x="-200" y="-25" width="400" height="50" fill="#fbbf24" rx="25"/>
    <text x="0" y="5" font-family="sans-serif" font-size="22" fill="#0c4a6e" text-anchor="middle" font-weight="bold">
      React 19 ∑ TypeScript ∑ PWA
    </text>
  </g>
  
  <!-- URL -->
  <text x="600" y="605" font-family="monospace" font-size="16" fill="#e0f2fe" text-anchor="middle">
    app.haotool.org/quake-school
  </text>
</svg>
